<?xml version="1.0" encoding="utf-8"?>
<!-- Generator: Adobe Illustrator 18.1.1, SVG Export Plug-In . SVG Version: 6.00 Build 0)  -->
<!DOCTYPE svg PUBLIC "-//W3C//DTD SVG 1.1//EN" "http://www.w3.org/Graphics/SVG/1.1/DTD/svg11.dtd">
<svg version="1.1" xmlns="http://www.w3.org/2000/svg" xmlns:xlink="http://www.w3.org/1999/xlink" x="0px" y="0px"
	 viewBox="0 0 204 32" enable-background="new 0 0 204 32" xml:space="preserve">
<g id="Layer_2">
	<g>
		<g>
			<path fill="#7D858B" d="M713.2191772-620.6273804v832.045166h-790v-832.045166H713.2191772 M714.2191772-621.6273804h-792
				v834.045166h792V-621.6273804L714.2191772-621.6273804z"/>
		</g>
	</g>
</g>
<g id="Layer_1">
	<g>
		<g>
			<path fill="#5DBC33" d="M200.1509094,0.0000072H38.4905357l0,0h-34.64151c-2.1169343,0-3.8490565,1.7999878-3.8490565,4v24
				c0,2.2000122,1.7321224,4,3.8490565,4h34.64151l0,0h161.6603699c2.1169434,0,3.8490601-1.7999878,3.8490601-4v-24
				C203.9999695,1.7999949,202.2678528,0.0000072,200.1509094,0.0000072z"/>
		</g>
		<g>
			<path fill="#FFFFFF" d="M9.999898,11.5802402c0-0.7432661,0.5270967-1.6557255,1.1704121-2.0278664l7.6591692-4.4228277
				c0.6437397-0.371861,1.6970997-0.371861,2.340971,0l7.6588879,4.4228277
				c0.6434479,0.3721409,1.1705589,1.2846003,1.1705589,2.0278664v8.8406563c0,0.743412-0.5271111,1.6562977-1.1711311,2.0277176
				l-7.6580219,4.4219761c-0.644165,0.3716984-1.697525,0.3716984-2.3418369,0l-7.6581707-4.4219761
				c-0.6437416-0.3714199-1.1708384-1.2843056-1.1708384-2.0277176V11.5802402z"/>
			<path fill="#5DBC33" d="M23.1886978,20.7561207l-0.6378593-1.2857475h-5.1123829l-0.6272106,1.2857475h-3.0529394
				l5.018609-10.2560921c0.2819405-0.5647335,0.7209988-0.8364811,1.2228279-0.8364811
				c0.5021267,0,0.9623032,0.303339,1.2235661,0.8259945l5.0181675,10.2665787H23.1886978z M21.3698082,17.0445118
				l-1.3700657-2.833168l-1.3693275,2.833168H21.3698082z"/>
			<path fill="#DEF0D6" d="M24.1087608,19.4910526l-4.1090183-8.3534603v2.3000259l2.3419876,4.8096313h-5.8441772
				l3.5021896-7.1096573V9.987565c-0.4492493,0.0314589-0.7001724,0.2718954-0.9197807,0.6589632l-4.7780275,9.7542629h2.2897005
				l-0.7004671-0.8887672l0.6063852-1.2647743l0.7212925,0.8884716h5.5514565l0.6276512,1.26507h2.3000412L24.1087608,19.4910526z"
				/>
		</g>
	</g>
	<path fill="#FFFFFF" d="M65.7902069,19.4257507h-0.0009766c-0.2060547,0-0.4023438-0.0849609-0.5429688-0.2333984
		l-2.5048828-2.640625l1.0878906-1.0332041l1.9628906,2.0693369l4.7236328-4.9404306l1.0839844,1.0371094l-5.2675781,5.5097666
		C66.1905975,19.3417664,65.995285,19.4257507,65.7902069,19.4257507z"/>
	<g>
		<path fill="#FFFFFF" d="M87.6517868,13.2978592c-0.2988281-0.4013672-0.6669922-0.7021484-1.1064453-0.9033203
			c-0.4384766-0.2001953-0.8955078-0.3007812-1.3710938-0.3007812c-0.5517578,0-1.0576172,0.1123047-1.5195312,0.3359375
			c-0.4619141,0.2246094-0.8613281,0.5253906-1.1972656,0.9033203s-0.5966797,0.8164062-0.7832031,1.3164062
			c-0.1875,0.4990234-0.2802734,1.0195312-0.2802734,1.5605469c0,0.5791016,0.0927734,1.1181641,0.2802734,1.6171875
			c0.1865234,0.4990234,0.4453125,0.9335938,0.7763672,1.3017578c0.3310547,0.3691406,0.7285156,0.6601562,1.1904297,0.875
			s0.9726562,0.3222656,1.5332031,0.3222656c0.6064453,0,1.1474609-0.1191406,1.6230469-0.3574219
			c0.4765625-0.2373047,0.8916016-0.5810547,1.2460938-1.0283203l0.8828125,0.7412109
			c-0.4482422,0.5976562-0.9873047,1.0361328-1.6171875,1.3164062s-1.3417969,0.4199219-2.1347656,0.4199219
			c-0.7099609,0-1.3720703-0.1308594-1.9882812-0.3916016c-0.6162109-0.2617188-1.1503906-0.6230469-1.6035156-1.0849609
			c-0.4521484-0.4619141-0.8066406-1.0107422-1.0634766-1.6455078s-0.3847656-1.3300781-0.3847656-2.0859375
			c0-0.7275391,0.1230469-1.4091797,0.3701172-2.0439453c0.2480469-0.6347656,0.5957031-1.1855469,1.0429688-1.6523438
			c0.4482422-0.4658203,0.9804688-0.8349609,1.5966797-1.1054688s1.2919922-0.40625,2.0302734-0.40625
			c0.671875,0,1.3173828,0.1210938,1.9384766,0.3642578c0.6210938,0.2421875,1.140625,0.6396484,1.5615234,1.1894531
			L87.6517868,13.2978592z"/>
		<path fill="#FFFFFF" d="M89.8217087,17.8896561c0-0.5126953,0.0888672-0.9794922,0.265625-1.3994141
			c0.1777344-0.4199219,0.4208984-0.7822266,0.7285156-1.0849609c0.3076172-0.3037109,0.6767578-0.5390625,1.1054688-0.7070312
			c0.4296875-0.1679688,0.8964844-0.2519531,1.4003906-0.2519531s0.9707031,0.0839844,1.4003906,0.2519531
			c0.4287109,0.1679688,0.7978516,0.4033203,1.1054688,0.7070312c0.3085938,0.3027344,0.5507812,0.6650391,0.7285156,1.0849609
			c0.1767578,0.4199219,0.265625,0.8867188,0.265625,1.3994141c0,0.5136719-0.0888672,0.9804688-0.265625,1.4003906
			c-0.1777344,0.4199219-0.4199219,0.7822266-0.7285156,1.0849609c-0.3076172,0.3037109-0.6767578,0.5390625-1.1054688,0.7070312
			c-0.4296875,0.1679688-0.8964844,0.2519531-1.4003906,0.2519531s-0.9707031-0.0839844-1.4003906-0.2519531
			c-0.4287109-0.1679688-0.7978516-0.4033203-1.1054688-0.7070312c-0.3076172-0.3027344-0.5507812-0.6650391-0.7285156-1.0849609
			C89.9105759,18.8701248,89.8217087,18.4033279,89.8217087,17.8896561z M90.9974899,17.8896561
			c0,0.3457031,0.0537109,0.6650391,0.1611328,0.9589844s0.2636719,0.5507812,0.46875,0.7705078
			s0.4501953,0.3916016,0.7353516,0.5175781c0.2841797,0.1259766,0.6044922,0.1894531,0.9589844,0.1894531
			s0.6738281-0.0634766,0.9589844-0.1894531c0.2841797-0.1259766,0.5292969-0.2978516,0.7353516-0.5175781
			c0.2050781-0.2197266,0.3613281-0.4765625,0.46875-0.7705078s0.1611328-0.6132812,0.1611328-0.9589844
			c0-0.3447266-0.0537109-0.6650391-0.1611328-0.9589844s-0.2636719-0.5498047-0.46875-0.7695312
			c-0.2060547-0.2197266-0.4511719-0.3925781-0.7353516-0.5185547c-0.2851562-0.1259766-0.6044922-0.1884766-0.9589844-0.1884766
			s-0.6748047,0.0625-0.9589844,0.1884766c-0.2851562,0.1259766-0.5302734,0.2988281-0.7353516,0.5185547
			s-0.3613281,0.4755859-0.46875,0.7695312S90.9974899,17.5449295,90.9974899,17.8896561z"/>
		<path fill="#FFFFFF" d="M98.5160446,16.1679764c0-0.2988281-0.0097656-0.578125-0.0283203-0.8398438
			s-0.0283203-0.4990234-0.0283203-0.7138672h1.0361328c0,0.1767578,0.0048828,0.3544922,0.0136719,0.5322266
			c0.0097656,0.1767578,0.0146484,0.359375,0.0146484,0.5458984h0.0273438
			c0.0751953-0.1591797,0.1796875-0.3125,0.3154297-0.4619141c0.1347656-0.1494141,0.2958984-0.2822266,0.4833984-0.3994141
			c0.1865234-0.1162109,0.3964844-0.2099609,0.6298828-0.2802734c0.2333984-0.0693359,0.4853516-0.1044922,0.7558594-0.1044922
			c0.4287109,0,0.7998047,0.0654297,1.1132812,0.1953125c0.3125,0.1308594,0.5712891,0.3134766,0.7763672,0.546875
			s0.3574219,0.515625,0.4550781,0.8466797c0.0986328,0.3310547,0.1474609,0.6923828,0.1474609,1.0849609v4.0458984h-1.0927734
			v-3.9335938c0-0.5507812-0.1210938-0.9853516-0.3632812-1.3027344c-0.2431641-0.3164062-0.6210938-0.4755859-1.1337891-0.4755859
			c-0.3554688,0-0.6611328,0.0605469-0.9169922,0.1816406c-0.2568359,0.1220703-0.4667969,0.2939453-0.6308594,0.5185547
			c-0.1630859,0.2236328-0.2841797,0.4892578-0.3632812,0.7978516c-0.0800781,0.3076172-0.1191406,0.6484375-0.1191406,1.0214844
			v3.1923828h-1.0917969V16.1679764z"/>
		<path fill="#FFFFFF" d="M106.2992477,16.1679764c0-0.2988281-0.0097656-0.578125-0.0283203-0.8398438
			s-0.0273438-0.4990234-0.0273438-0.7138672h1.0361328c0,0.1767578,0.0039062,0.3544922,0.0136719,0.5322266
			c0.0087891,0.1767578,0.0136719,0.359375,0.0136719,0.5458984h0.0283203
			c0.0742188-0.1591797,0.1796875-0.3125,0.3154297-0.4619141c0.1347656-0.1494141,0.2958984-0.2822266,0.4824219-0.3994141
			c0.1865234-0.1162109,0.3964844-0.2099609,0.6298828-0.2802734c0.2333984-0.0693359,0.4853516-0.1044922,0.7558594-0.1044922
			c0.4296875,0,0.8007812,0.0654297,1.1132812,0.1953125c0.3125,0.1308594,0.5712891,0.3134766,0.7773438,0.546875
			c0.2050781,0.2333984,0.3564453,0.515625,0.4550781,0.8466797c0.0976562,0.3310547,0.1464844,0.6923828,0.1464844,1.0849609
			v4.0458984h-1.0917969v-3.9335938c0-0.5507812-0.1210938-0.9853516-0.3642578-1.3027344
			c-0.2421875-0.3164062-0.6201172-0.4755859-1.1337891-0.4755859c-0.3544922,0-0.6601562,0.0605469-0.9169922,0.1816406
			c-0.2568359,0.1220703-0.4667969,0.2939453-0.6298828,0.5185547c-0.1630859,0.2236328-0.2851562,0.4892578-0.3642578,0.7978516
			c-0.0791016,0.3076172-0.1191406,0.6484375-0.1191406,1.0214844v3.1923828h-1.0917969V16.1679764z"/>
		<path fill="#FFFFFF" d="M119.9359665,19.9755936c-0.3925781,0.5048828-0.8222656,0.8564453-1.2880859,1.0576172
			c-0.4667969,0.2001953-1.0087891,0.3007812-1.6240234,0.3007812c-0.5136719,0-0.9755859-0.0908203-1.3867188-0.2734375
			c-0.4101562-0.1816406-0.7578125-0.4267578-1.0429688-0.734375c-0.2841797-0.3085938-0.5039062-0.671875-0.6572266-1.0917969
			c-0.1542969-0.4199219-0.2314453-0.8681641-0.2314453-1.3447266c0-0.5039062,0.0839844-0.9677734,0.2519531-1.3925781
			s0.4013672-0.7890625,0.7001953-1.0917969c0.2988281-0.3037109,0.6533203-0.5390625,1.0634766-0.7070312
			c0.4111328-0.1679688,0.859375-0.2519531,1.3447266-0.2519531c0.4570312,0,0.8769531,0.0771484,1.2597656,0.2304688
			c0.3828125,0.1542969,0.7119141,0.3779297,0.9873047,0.671875c0.2744141,0.2939453,0.4873047,0.6533203,0.6367188,1.078125
			s0.2236328,0.9082031,0.2236328,1.4492188v0.3496094h-5.2919922c0.0185547,0.2802734,0.0869141,0.5488281,0.203125,0.8056641
			c0.1171875,0.2568359,0.2685547,0.4804688,0.4550781,0.671875s0.40625,0.3427734,0.6582031,0.4550781
			c0.2519531,0.1113281,0.5273438,0.1679688,0.8261719,0.1679688c0.4755859,0,0.8769531-0.0839844,1.2041016-0.2519531
			c0.3261719-0.1679688,0.6201172-0.4150391,0.8818359-0.7421875L119.9359665,19.9755936z M118.9974899,17.3017654
			c-0.0185547-0.5595703-0.2011719-1.0078125-0.5458984-1.34375c-0.3457031-0.3359375-0.8212891-0.5039062-1.4277344-0.5039062
			c-0.6074219,0-1.0966797,0.1679688-1.4707031,0.5039062c-0.3730469,0.3359375-0.5966797,0.7841797-0.671875,1.34375H118.9974899z"
			/>
		<path fill="#FFFFFF" d="M126.5297165,16.2519608c-0.2333984-0.2802734-0.4853516-0.4833984-0.7558594-0.609375
			s-0.5693359-0.1884766-0.8964844-0.1884766c-0.3632812,0-0.6855469,0.0625-0.9658203,0.1884766
			s-0.5107422,0.3017578-0.6923828,0.5253906c-0.1826172,0.2236328-0.3203125,0.4833984-0.4130859,0.7773438
			c-0.09375,0.2939453-0.140625,0.6083984-0.140625,0.9443359s0.0537109,0.6513672,0.1611328,0.9453125
			s0.2568359,0.5527344,0.4482422,0.7773438c0.1914062,0.2236328,0.421875,0.3984375,0.6933594,0.5244141
			c0.2705078,0.1259766,0.5732422,0.1894531,0.9091797,0.1894531c0.71875,0,1.2744141-0.2705078,1.6660156-0.8125l0.8125,0.7705078
			c-0.3173828,0.3642578-0.6914062,0.6298828-1.1201172,0.7978516c-0.4296875,0.1679688-0.8818359,0.2519531-1.3583984,0.2519531
			c-0.5039062,0-0.9658203-0.0839844-1.3857422-0.2519531s-0.7773438-0.40625-1.0712891-0.7138672
			c-0.2939453-0.3085938-0.5224609-0.671875-0.6855469-1.0917969s-0.2451172-0.8828125-0.2451172-1.3867188
			c0-0.4941406,0.0820312-0.9511719,0.2451172-1.3720703c0.1630859-0.4199219,0.3945312-0.7832031,0.6933594-1.0917969
			c0.2978516-0.3076172,0.6552734-0.5478516,1.0703125-0.7207031s0.875-0.2587891,1.3789062-0.2587891
			c0.4853516,0,0.9453125,0.0839844,1.3789062,0.2519531c0.4345703,0.1679688,0.8144531,0.4287109,1.1416016,0.7841797
			L126.5297165,16.2519608z"/>
		<path fill="#FFFFFF" d="M132.199646,15.5380936h-1.9316406v3.2763672c0,0.2148438,0.0039062,0.4121094,0.0136719,0.5947266
			c0.0097656,0.1816406,0.046875,0.3408203,0.1123047,0.4755859c0.0654297,0.1357422,0.1630859,0.2431641,0.2939453,0.3222656
			s0.3173828,0.1191406,0.5595703,0.1191406c0.1591797,0,0.3222656-0.0185547,0.4902344-0.0566406
			c0.1679688-0.0371094,0.3261719-0.0927734,0.4755859-0.1679688l0.0419922,0.9941406
			c-0.1865234,0.0839844-0.3935547,0.1445312-0.6220703,0.1826172c-0.2294922,0.0371094-0.4462891,0.0556641-0.6513672,0.0556641
			c-0.3925781,0-0.7050781-0.0517578-0.9384766-0.1542969s-0.4150391-0.2470703-0.5458984-0.4335938
			s-0.2167969-0.4179688-0.2587891-0.6933594s-0.0625-0.5810547-0.0625-0.9169922v-3.5976562h-1.4287186v-0.9238281h1.4287186
			v-1.8623047h1.0917969v1.8623047h1.9316406V15.5380936z"/>
		<path fill="#FFFFFF" d="M139.3959351,19.9755936c-0.3925781,0.5048828-0.8222656,0.8564453-1.2880859,1.0576172
			c-0.4667969,0.2001953-1.0087891,0.3007812-1.6240234,0.3007812c-0.5136719,0-0.9755859-0.0908203-1.3867188-0.2734375
			c-0.4101562-0.1816406-0.7578125-0.4267578-1.0429688-0.734375c-0.2841797-0.3085938-0.5039062-0.671875-0.6572266-1.0917969
			c-0.1542969-0.4199219-0.2314453-0.8681641-0.2314453-1.3447266c0-0.5039062,0.0839844-0.9677734,0.2519531-1.3925781
			s0.4013672-0.7890625,0.7001953-1.0917969c0.2988281-0.3037109,0.6533203-0.5390625,1.0634766-0.7070312
			c0.4111328-0.1679688,0.859375-0.2519531,1.3447266-0.2519531c0.4570312,0,0.8769531,0.0771484,1.2597656,0.2304688
			c0.3828125,0.1542969,0.7119141,0.3779297,0.9873047,0.671875c0.2744141,0.2939453,0.4873047,0.6533203,0.6367188,1.078125
			s0.2236328,0.9082031,0.2236328,1.4492188v0.3496094h-5.2919922c0.0185547,0.2802734,0.0869141,0.5488281,0.203125,0.8056641
			c0.1171875,0.2568359,0.2685547,0.4804688,0.4550781,0.671875s0.40625,0.3427734,0.6582031,0.4550781
			c0.2519531,0.1113281,0.5273438,0.1679688,0.8261719,0.1679688c0.4755859,0,0.8769531-0.0839844,1.2041016-0.2519531
			c0.3261719-0.1679688,0.6201172-0.4150391,0.8818359-0.7421875L139.3959351,19.9755936z M138.4574585,17.3017654
			c-0.0185547-0.5595703-0.2011719-1.0078125-0.5458984-1.34375c-0.3457031-0.3359375-0.8212891-0.5039062-1.4277344-0.5039062
			c-0.6074219,0-1.0966797,0.1679688-1.4707031,0.5039062c-0.3730469,0.3359375-0.5966797,0.7841797-0.671875,1.34375H138.4574585z"
			/>
		<path fill="#FFFFFF" d="M146.7728882,20.0039139h-0.0273438c-0.2060547,0.3730469-0.5302734,0.6884766-0.9736328,0.9453125
			s-0.9589844,0.3847656-1.546875,0.3847656c-0.4570312,0-0.8867188-0.0859375-1.2880859-0.2587891
			s-0.7490234-0.4130859-1.0429688-0.7207031c-0.2939453-0.3085938-0.5244141-0.6728516-0.6923828-1.0927734
			s-0.2519531-0.8769531-0.2519531-1.3720703c0-0.4941406,0.0839844-0.9511719,0.2519531-1.3720703
			c0.1679688-0.4199219,0.4003906-0.7832031,0.6992188-1.0917969c0.2988281-0.3076172,0.6601562-0.5478516,1.0849609-0.7207031
			s0.8935547-0.2587891,1.4072266-0.2587891c0.4765625,0,0.9121094,0.0976562,1.3095703,0.2939453
			c0.3964844,0.1953125,0.7441406,0.4707031,1.0429688,0.8261719h0.0273438v-4.984375h1.0927734v10.5839844h-1.0927734V20.0039139z
			 M146.7728882,17.8896561c0-0.3447266-0.0537109-0.6650391-0.1611328-0.9589844s-0.2636719-0.5498047-0.46875-0.7695312
			s-0.4501953-0.3925781-0.734375-0.5185547c-0.2851562-0.1259766-0.6044922-0.1884766-0.9589844-0.1884766
			c-0.3554688,0-0.6748047,0.0625-0.9589844,0.1884766c-0.2851562,0.1259766-0.5302734,0.2988281-0.7353516,0.5185547
			s-0.3623047,0.4755859-0.46875,0.7695312c-0.1074219,0.2939453-0.1611328,0.6142578-0.1611328,0.9589844
			c0,0.3457031,0.0537109,0.6650391,0.1611328,0.9589844c0.1064453,0.2939453,0.2636719,0.5507812,0.46875,0.7705078
			s0.4501953,0.3916016,0.7353516,0.5175781c0.2841797,0.1259766,0.6035156,0.1894531,0.9589844,0.1894531
			c0.3544922,0,0.6738281-0.0634766,0.9589844-0.1894531c0.2841797-0.1259766,0.5292969-0.2978516,0.734375-0.5175781
			s0.3613281-0.4765625,0.46875-0.7705078S146.7728882,18.2353592,146.7728882,17.8896561z"/>
	</g>
</g>
</svg>
